<?xml version="1.0" encoding="UTF-8"?>
<svg version="1.1" xmlns="http://www.w3.org/2000/svg" width="320" height="320">
<path d="M0 0 C105.6 0 211.2 0 320 0 C320 105.6 320 211.2 320 320 C214.4 320 108.8 320 0 320 C0 214.4 0 108.8 0 0 Z " fill="#FDFDFD" transform="translate(0,0)"/>
<path d="M0 0 C0.66322266 0.09651855 1.32644531 0.19303711 2.00976562 0.29248047 C14.87076055 2.19908853 26.95696554 6.18278622 39 11 C39 21.89 39 32.78 39 44 C34.92903919 43.18580784 32.47848805 42.31043953 28.94067383 40.37182617 C1.86448808 25.59215955 -33.89813871 21.36750032 -63.68212891 29.30664062 C-86.65178416 36.17769823 -106.51103203 51.92380241 -118 73 C-118.33 73.59377441 -118.66 74.18754883 -119 74.79931641 C-124.39045594 84.61952692 -127.86950184 94.01111478 -130 105 C-130.22429687 106.05703125 -130.44859375 107.1140625 -130.6796875 108.203125 C-133.60266529 124.45968638 -133.46264847 142.84753184 -130 159 C-129.731875 160.27488281 -129.46375 161.54976562 -129.1875 162.86328125 C-124.86996967 182.18038702 -116.95170781 199.60216482 -102 213 C-101.52304688 213.49371094 -101.04609375 213.98742187 -100.5546875 214.49609375 C-91.86218208 222.90467311 -79.65164238 228.99312455 -68 232 C-66.94425781 232.2784375 -65.88851562 232.556875 -64.80078125 232.84375 C-41.45603195 238.11278432 -12.4086975 237.20599958 9.19140625 225.84765625 C11 225 11 225 14 225 C14 200.91 14 176.82 14 152 C-4.48 152 -22.96 152 -42 152 C-42 143.09 -42 134.18 -42 125 C-13.62 125 14.76 125 44 125 C44 163.61 44 202.22 44 242 C3.16360205 261.21712845 -43.16070257 271.62982716 -87.30371094 256.61254883 C-99.13157826 252.30219604 -110.54156996 246.36916746 -120 238 C-120.80566406 237.31292969 -121.61132812 236.62585938 -122.44140625 235.91796875 C-143.83298366 217.26973867 -157.69679063 193.1588652 -162 165 C-162.33 164.34 -162.66 163.68 -163 163 C-163.96991525 156.56543447 -164.16853275 150.07869368 -164.203125 143.58203125 C-164.20882507 142.72171799 -164.21452515 141.86140472 -164.22039795 140.97502136 C-164.22976964 139.16752319 -164.23635037 137.36000853 -164.24023438 135.55249023 C-164.24991585 132.8361113 -164.28100496 130.1204984 -164.3125 127.40429688 C-164.37675523 116.84909636 -163.59778669 107.2496673 -161 97 C-160.80647949 96.18281494 -160.61295898 95.36562988 -160.41357422 94.52368164 C-154.67135343 71.18476827 -142.66262396 52.03497309 -126 35 C-125.32453125 34.26265625 -124.6490625 33.5253125 -123.953125 32.765625 C-92.8933694 -0.41787457 -42.64256899 -6.67203761 0 0 Z " fill="#030303" transform="translate(214,23)"/>
</svg>
